<svg width="21" height="19" viewBox="0 0 21 19" fill="none" xmlns="http://www.w3.org/2000/svg">
<path d="M13.3636 0H4.77273C3.98045 0 3.30273 0.475 3.01636 1.159L0.133636 7.8565C0.0477273 8.075 0 8.303 0 8.55V10.45C0 11.495 0.859091 12.35 1.90909 12.35H7.93227L7.02545 16.6915L6.99682 16.9955C6.99682 17.385 7.15909 17.746 7.41682 18.0025L8.42864 19L14.7191 12.7395C15.0627 12.3975 15.2727 11.9225 15.2727 11.4V1.9C15.2727 0.855 14.4136 0 13.3636 0ZM17.1818 0V11.4H21V0H17.1818Z" fill="#EB6B23"/>
</svg>
