<svg width="21" height="19" viewBox="0 0 21 19" fill="none" xmlns="http://www.w3.org/2000/svg">
<path d="M7.63636 19L16.2273 19C17.0195 19 17.6973 18.525 17.9836 17.841L20.8664 11.1435C20.9523 10.925 21 10.697 21 10.45L21 8.55C21 7.505 20.1409 6.65 19.0909 6.65L13.0677 6.65L13.9745 2.3085L14.0032 2.0045C14.0032 1.615 13.8409 1.254 13.5832 0.997499L12.5714 -7.36855e-07L6.28091 6.2605C5.93727 6.6025 5.72727 7.0775 5.72727 7.6L5.72727 17.1C5.72727 18.145 6.58636 19 7.63636 19ZM3.81818 19L3.81818 7.6L9.9662e-07 7.6L0 19L3.81818 19Z" fill="#519B20"/>
</svg>
